<mxfile host="app.diagrams.net" modified="2021-07-10T13:50:35.955Z" agent="5.0 (Windows NT 10.0; Win64; x64) AppleWebKit/537.36 (KHTML, like Gecko) Chrome/91.0.4472.124 Safari/537.36 Edg/91.0.864.67" etag="2iZLYY9XEgw26Nm5FoPB" version="14.8.5" type="github" pages="2">
  <diagram id="uH9IVmC-AdR6jcSws4-2" name="ER Diagram">
    <mxGraphModel dx="595" dy="333" grid="1" gridSize="10" guides="1" tooltips="1" connect="1" arrows="1" fold="1" page="1" pageScale="1" pageWidth="850" pageHeight="1100" math="0" shadow="0">
      <root>
        <mxCell id="0" />
        <mxCell id="1" parent="0" />
        <mxCell id="YN1rf1I2Gk655mvVFCjl-4" value="Entity Relation" style="shape=table;startSize=30;container=1;collapsible=1;childLayout=tableLayout;fixedRows=1;rowLines=0;fontStyle=1;align=center;resizeLast=1;" parent="1" vertex="1">
          <mxGeometry x="330" y="180" width="180" height="160" as="geometry" />
        </mxCell>
        <mxCell id="YN1rf1I2Gk655mvVFCjl-5" value="" style="shape=partialRectangle;collapsible=0;dropTarget=0;pointerEvents=0;fillColor=none;top=0;left=0;bottom=0;right=0;points=[[0,0.5],[1,0.5]];portConstraint=eastwest;" parent="YN1rf1I2Gk655mvVFCjl-4" vertex="1">
          <mxGeometry y="30" width="180" height="30" as="geometry" />
        </mxCell>
        <mxCell id="YN1rf1I2Gk655mvVFCjl-6" value="PK,FK1" style="shape=partialRectangle;connectable=0;fillColor=none;top=0;left=0;bottom=0;right=0;fontStyle=1;overflow=hidden;" parent="YN1rf1I2Gk655mvVFCjl-5" vertex="1">
          <mxGeometry width="60" height="30" as="geometry" />
        </mxCell>
        <mxCell id="YN1rf1I2Gk655mvVFCjl-7" value="Row 1" style="shape=partialRectangle;connectable=0;fillColor=none;top=0;left=0;bottom=0;right=0;align=left;spacingLeft=6;fontStyle=5;overflow=hidden;" parent="YN1rf1I2Gk655mvVFCjl-5" vertex="1">
          <mxGeometry x="60" width="120" height="30" as="geometry" />
        </mxCell>
        <mxCell id="YN1rf1I2Gk655mvVFCjl-8" value="" style="shape=partialRectangle;collapsible=0;dropTarget=0;pointerEvents=0;fillColor=none;top=0;left=0;bottom=1;right=0;points=[[0,0.5],[1,0.5]];portConstraint=eastwest;" parent="YN1rf1I2Gk655mvVFCjl-4" vertex="1">
          <mxGeometry y="60" width="180" height="30" as="geometry" />
        </mxCell>
        <mxCell id="YN1rf1I2Gk655mvVFCjl-9" value="FK2" style="shape=partialRectangle;connectable=0;fillColor=none;top=0;left=0;bottom=0;right=0;fontStyle=1;overflow=hidden;" parent="YN1rf1I2Gk655mvVFCjl-8" vertex="1">
          <mxGeometry width="60" height="30" as="geometry" />
        </mxCell>
        <mxCell id="YN1rf1I2Gk655mvVFCjl-10" value="Row 2" style="shape=partialRectangle;connectable=0;fillColor=none;top=0;left=0;bottom=0;right=0;align=left;spacingLeft=6;fontStyle=5;overflow=hidden;" parent="YN1rf1I2Gk655mvVFCjl-8" vertex="1">
          <mxGeometry x="60" width="120" height="30" as="geometry" />
        </mxCell>
        <mxCell id="YN1rf1I2Gk655mvVFCjl-11" value="" style="shape=partialRectangle;collapsible=0;dropTarget=0;pointerEvents=0;fillColor=none;top=0;left=0;bottom=0;right=0;points=[[0,0.5],[1,0.5]];portConstraint=eastwest;" parent="YN1rf1I2Gk655mvVFCjl-4" vertex="1">
          <mxGeometry y="90" width="180" height="30" as="geometry" />
        </mxCell>
        <mxCell id="YN1rf1I2Gk655mvVFCjl-12" value="" style="shape=partialRectangle;connectable=0;fillColor=none;top=0;left=0;bottom=0;right=0;editable=1;overflow=hidden;" parent="YN1rf1I2Gk655mvVFCjl-11" vertex="1">
          <mxGeometry width="60" height="30" as="geometry" />
        </mxCell>
        <mxCell id="YN1rf1I2Gk655mvVFCjl-13" value="Row 3" style="shape=partialRectangle;connectable=0;fillColor=none;top=0;left=0;bottom=0;right=0;align=left;spacingLeft=6;overflow=hidden;" parent="YN1rf1I2Gk655mvVFCjl-11" vertex="1">
          <mxGeometry x="60" width="120" height="30" as="geometry" />
        </mxCell>
        <mxCell id="YN1rf1I2Gk655mvVFCjl-14" value="" style="shape=partialRectangle;collapsible=0;dropTarget=0;pointerEvents=0;fillColor=none;top=0;left=0;bottom=0;right=0;points=[[0,0.5],[1,0.5]];portConstraint=eastwest;" parent="YN1rf1I2Gk655mvVFCjl-4" vertex="1">
          <mxGeometry y="120" width="180" height="30" as="geometry" />
        </mxCell>
        <mxCell id="YN1rf1I2Gk655mvVFCjl-15" value="" style="shape=partialRectangle;connectable=0;fillColor=none;top=0;left=0;bottom=0;right=0;editable=1;overflow=hidden;" parent="YN1rf1I2Gk655mvVFCjl-14" vertex="1">
          <mxGeometry width="60" height="30" as="geometry" />
        </mxCell>
        <mxCell id="YN1rf1I2Gk655mvVFCjl-16" value="Row 4" style="shape=partialRectangle;connectable=0;fillColor=none;top=0;left=0;bottom=0;right=0;align=left;spacingLeft=6;overflow=hidden;" parent="YN1rf1I2Gk655mvVFCjl-14" vertex="1">
          <mxGeometry x="60" width="120" height="30" as="geometry" />
        </mxCell>
      </root>
    </mxGraphModel>
  </diagram>
  <diagram id="JC2XnP_9zN7PsINWRgyq" name="Views and Wishlist">
    <mxGraphModel dx="850" dy="476" grid="1" gridSize="10" guides="1" tooltips="1" connect="1" arrows="1" fold="1" page="1" pageScale="1" pageWidth="850" pageHeight="1100" math="0" shadow="0">
      <root>
        <mxCell id="3YxOe_iXc7texFDQQpAT-0" />
        <mxCell id="3YxOe_iXc7texFDQQpAT-1" parent="3YxOe_iXc7texFDQQpAT-0" />
        <mxCell id="3YxOe_iXc7texFDQQpAT-3" value="" style="shape=image;html=1;verticalAlign=top;verticalLabelPosition=bottom;labelBackgroundColor=#ffffff;imageAspect=0;aspect=fixed;image=https://cdn1.iconfinder.com/data/icons/essential-21/128/Eye-128.png" vertex="1" parent="3YxOe_iXc7texFDQQpAT-1">
          <mxGeometry x="480" y="260" width="60" height="60" as="geometry" />
        </mxCell>
        <mxCell id="3YxOe_iXc7texFDQQpAT-4" value="Views" style="text;html=1;align=center;verticalAlign=middle;resizable=0;points=[];autosize=1;strokeColor=none;" vertex="1" parent="3YxOe_iXc7texFDQQpAT-1">
          <mxGeometry x="480" y="350" width="50" height="20" as="geometry" />
        </mxCell>
        <mxCell id="3YxOe_iXc7texFDQQpAT-13" value="" style="group;shadow=1;" vertex="1" connectable="0" parent="3YxOe_iXc7texFDQQpAT-1">
          <mxGeometry x="19" y="90" width="220" height="140" as="geometry" />
        </mxCell>
        <mxCell id="3YxOe_iXc7texFDQQpAT-8" value="" style="rounded=1;whiteSpace=wrap;html=1;" vertex="1" parent="3YxOe_iXc7texFDQQpAT-13">
          <mxGeometry width="220" height="140" as="geometry" />
        </mxCell>
        <mxCell id="3YxOe_iXc7texFDQQpAT-5" value="" style="shape=image;html=1;verticalAlign=top;verticalLabelPosition=bottom;labelBackgroundColor=#ffffff;imageAspect=0;aspect=fixed;image=https://cdn4.iconfinder.com/data/icons/iphone_toolbar_icons/iphone_toolbar_icons/trend.png" vertex="1" parent="3YxOe_iXc7texFDQQpAT-13">
          <mxGeometry x="150" y="55" width="30" height="30" as="geometry" />
        </mxCell>
        <mxCell id="3YxOe_iXc7texFDQQpAT-9" style="edgeStyle=orthogonalEdgeStyle;rounded=0;orthogonalLoop=1;jettySize=auto;html=1;entryX=0;entryY=0.5;entryDx=0;entryDy=0;" edge="1" parent="3YxOe_iXc7texFDQQpAT-13" source="3YxOe_iXc7texFDQQpAT-6" target="3YxOe_iXc7texFDQQpAT-5">
          <mxGeometry relative="1" as="geometry" />
        </mxCell>
        <mxCell id="3YxOe_iXc7texFDQQpAT-6" value="" style="shape=image;html=1;verticalAlign=top;verticalLabelPosition=bottom;labelBackgroundColor=#ffffff;imageAspect=0;aspect=fixed;image=https://cdn2.iconfinder.com/data/icons/officeicons/PNG/48/Users_Group.png" vertex="1" parent="3YxOe_iXc7texFDQQpAT-13">
          <mxGeometry x="30" y="49" width="48" height="48" as="geometry" />
        </mxCell>
        <mxCell id="3YxOe_iXc7texFDQQpAT-10" value="Trending Items" style="dashed=0;html=1;rounded=1;fillColor=#172B4D;strokeColor=#172B4D;fontSize=12;align=center;fontStyle=0;strokeWidth=2;fontColor=#ffffff" vertex="1" parent="3YxOe_iXc7texFDQQpAT-13">
          <mxGeometry x="130" y="10" width="90" height="20" as="geometry" />
        </mxCell>
        <mxCell id="3YxOe_iXc7texFDQQpAT-11" value="&lt;span style=&quot;font-weight: normal&quot;&gt;IF &lt;/span&gt;GUEST" style="dashed=0;html=1;rounded=1;strokeColor=#0057D8;fontSize=12;align=center;fontStyle=1;strokeWidth=2;fontColor=#0057D8" vertex="1" parent="3YxOe_iXc7texFDQQpAT-13">
          <mxGeometry y="10" width="100" height="20" as="geometry" />
        </mxCell>
        <mxCell id="3YxOe_iXc7texFDQQpAT-15" value="Input text" style="text;fontColor=#ffffff;fontSize=16;verticalAlign=middle;strokeColor=none;fillColor=none;" vertex="1" parent="3YxOe_iXc7texFDQQpAT-1">
          <mxGeometry x="17" width="346" height="30" as="geometry" />
        </mxCell>
        <mxCell id="3YxOe_iXc7texFDQQpAT-16" value="" style="dashed=0;shape=line;strokeWidth=2;noLabel=1;strokeColor=#ff0000;" vertex="1" parent="3YxOe_iXc7texFDQQpAT-1">
          <mxGeometry x="17" y="25" width="346" height="10" as="geometry" />
        </mxCell>
        <mxCell id="3YxOe_iXc7texFDQQpAT-17" value="NOT ENOUGH RATINGS" style="text;fontColor=#ff0000;fontSize=14;verticalAlign=middle;strokeColor=none;fillColor=none;" vertex="1" parent="3YxOe_iXc7texFDQQpAT-1">
          <mxGeometry x="17" y="30" width="346" height="25" as="geometry" />
        </mxCell>
        <mxCell id="3YxOe_iXc7texFDQQpAT-18" value="" style="group" vertex="1" connectable="0" parent="3YxOe_iXc7texFDQQpAT-1">
          <mxGeometry x="450" y="80" width="450" height="140" as="geometry" />
        </mxCell>
        <mxCell id="3YxOe_iXc7texFDQQpAT-19" value="" style="rounded=1;whiteSpace=wrap;html=1;shadow=1;" vertex="1" parent="3YxOe_iXc7texFDQQpAT-18">
          <mxGeometry width="370" height="140" as="geometry" />
        </mxCell>
        <mxCell id="3YxOe_iXc7texFDQQpAT-22" value="" style="shape=image;html=1;verticalAlign=top;verticalLabelPosition=bottom;labelBackgroundColor=#ffffff;imageAspect=0;aspect=fixed;image=https://cdn2.iconfinder.com/data/icons/officeicons/PNG/48/Users_Group.png" vertex="1" parent="3YxOe_iXc7texFDQQpAT-18">
          <mxGeometry x="29" y="66" width="48" height="48" as="geometry" />
        </mxCell>
        <mxCell id="3YxOe_iXc7texFDQQpAT-23" value="2 each from most and secondmost&lt;br&gt;viewed subcats" style="dashed=0;html=1;rounded=1;fillColor=#172B4D;strokeColor=#172B4D;fontSize=12;align=center;fontStyle=0;strokeWidth=2;fontColor=#ffffff" vertex="1" parent="3YxOe_iXc7texFDQQpAT-18">
          <mxGeometry x="165" y="6" width="205" height="40" as="geometry" />
        </mxCell>
        <mxCell id="3YxOe_iXc7texFDQQpAT-24" value="&lt;span style=&quot;font-weight: normal&quot;&gt;VIEWS IN &amp;gt;2 SUBCATS&lt;/span&gt;" style="dashed=0;html=1;rounded=1;strokeColor=#0057D8;fontSize=12;align=center;fontStyle=1;strokeWidth=2;fontColor=#0057D8" vertex="1" parent="3YxOe_iXc7texFDQQpAT-18">
          <mxGeometry y="10" width="150" height="20" as="geometry" />
        </mxCell>
        <mxCell id="3YxOe_iXc7texFDQQpAT-32" value="Most viewed" style="swimlane;shadow=0;sketch=0;fontSize=14;gradientColor=#00FF00;" vertex="1" parent="3YxOe_iXc7texFDQQpAT-18">
          <mxGeometry x="97" y="57" width="115" height="66" as="geometry" />
        </mxCell>
        <mxCell id="3YxOe_iXc7texFDQQpAT-34" value="2 products" style="text;html=1;strokeColor=none;fillColor=none;align=center;verticalAlign=middle;whiteSpace=wrap;rounded=0;shadow=0;sketch=0;fontSize=14;" vertex="1" parent="3YxOe_iXc7texFDQQpAT-32">
          <mxGeometry x="26" y="33" width="52" height="20" as="geometry" />
        </mxCell>
        <mxCell id="3YxOe_iXc7texFDQQpAT-36" value="2nd Most viewed" style="swimlane;shadow=0;sketch=0;fontSize=14;gradientColor=#00FF00;" vertex="1" parent="3YxOe_iXc7texFDQQpAT-18">
          <mxGeometry x="230" y="57" width="125" height="66" as="geometry" />
        </mxCell>
        <mxCell id="3YxOe_iXc7texFDQQpAT-37" value="2 products" style="text;html=1;strokeColor=none;fillColor=none;align=center;verticalAlign=middle;whiteSpace=wrap;rounded=0;shadow=0;sketch=0;fontSize=14;" vertex="1" parent="3YxOe_iXc7texFDQQpAT-36">
          <mxGeometry x="26" y="33" width="52" height="20" as="geometry" />
        </mxCell>
        <mxCell id="3YxOe_iXc7texFDQQpAT-26" value="" style="html=1;shadow=0;dashed=0;align=center;verticalAlign=middle;shape=mxgraph.arrows2.sharpArrow;dy1=0.67;dx1=18;dx2=18;notch=0;fontSize=14;sketch=0;gradientDirection=north;gradientColor=#00FF00;" vertex="1" parent="3YxOe_iXc7texFDQQpAT-1">
          <mxGeometry x="273" y="130" width="100" height="60" as="geometry" />
        </mxCell>
        <mxCell id="3YxOe_iXc7texFDQQpAT-28" value="&lt;font style=&quot;font-size: 16px&quot;&gt;2. Starts viewing products&lt;/font&gt;" style="text;html=1;align=center;verticalAlign=middle;resizable=0;points=[];autosize=1;strokeColor=none;fontSize=14;" vertex="1" parent="3YxOe_iXc7texFDQQpAT-1">
          <mxGeometry x="233" y="210" width="200" height="20" as="geometry" />
        </mxCell>
        <mxCell id="3YxOe_iXc7texFDQQpAT-29" value="&lt;font style=&quot;background-color: rgb(255 , 255 , 255) ; font-size: 17px&quot; color=&quot;#009900&quot;&gt;1. Logs in&lt;/font&gt;" style="text;html=1;align=center;verticalAlign=middle;resizable=0;points=[];autosize=1;strokeColor=none;fontSize=14;" vertex="1" parent="3YxOe_iXc7texFDQQpAT-1">
          <mxGeometry x="278" y="100" width="90" height="20" as="geometry" />
        </mxCell>
        <mxCell id="3YxOe_iXc7texFDQQpAT-30" value="" style="shape=flexArrow;endArrow=classic;html=1;fontSize=14;" edge="1" parent="3YxOe_iXc7texFDQQpAT-1">
          <mxGeometry width="50" height="50" relative="1" as="geometry">
            <mxPoint x="269" y="150" as="sourcePoint" />
            <mxPoint x="305" y="114.70588235294133" as="targetPoint" />
          </mxGeometry>
        </mxCell>
      </root>
    </mxGraphModel>
  </diagram>
</mxfile>
